<mxfile host="app.diagrams.net" agent="Mozilla/5.0 (Windows NT 10.0; Win64; x64) AppleWebKit/537.36 (KHTML, like Gecko) Chrome/137.0.0.0 Safari/537.36" version="27.1.6">
  <diagram id="T7DuSFTtY7JWr8y_7kD_" name="Page-1">
    <mxGraphModel dx="1426" dy="743" grid="1" gridSize="10" guides="1" tooltips="1" connect="1" arrows="1" fold="1" page="1" pageScale="1" pageWidth="850" pageHeight="1100" math="0" shadow="0">
      <root>
        <mxCell id="0" />
        <mxCell id="1" parent="0" />
        <mxCell id="CBmJ4WK3LXKFCN-YQZ7O-23" value="&lt;b&gt;main.py&lt;/b&gt;&lt;div&gt;&lt;span style=&quot;color: rgb(18, 18, 18);&quot;&gt;timestepping of dynamics and (eventually) guidance&lt;/span&gt;&lt;/div&gt;" style="whiteSpace=wrap;html=1;fillColor=#fa6800;fontColor=#000000;strokeColor=#C73500;" vertex="1" parent="1">
          <mxGeometry x="365" y="410" width="120" height="60" as="geometry" />
        </mxCell>
        <mxCell id="CBmJ4WK3LXKFCN-YQZ7O-36" style="edgeStyle=orthogonalEdgeStyle;rounded=0;orthogonalLoop=1;jettySize=auto;html=1;exitX=0;exitY=0.5;exitDx=0;exitDy=0;entryX=1;entryY=0.5;entryDx=0;entryDy=0;fillColor=#a20025;strokeColor=#6F0000;" edge="1" parent="1" source="CBmJ4WK3LXKFCN-YQZ7O-25" target="CBmJ4WK3LXKFCN-YQZ7O-27">
          <mxGeometry relative="1" as="geometry" />
        </mxCell>
        <mxCell id="CBmJ4WK3LXKFCN-YQZ7O-37" value="used in" style="edgeLabel;html=1;align=center;verticalAlign=middle;resizable=0;points=[];fontSize=14;" vertex="1" connectable="0" parent="CBmJ4WK3LXKFCN-YQZ7O-36">
          <mxGeometry x="-0.0417" y="3" relative="1" as="geometry">
            <mxPoint x="-3" y="55" as="offset" />
          </mxGeometry>
        </mxCell>
        <mxCell id="CBmJ4WK3LXKFCN-YQZ7O-45" value="used in" style="edgeStyle=orthogonalEdgeStyle;rounded=0;orthogonalLoop=1;jettySize=auto;html=1;entryX=0.5;entryY=0;entryDx=0;entryDy=0;fillColor=#1ba1e2;strokeColor=#006EAF;fontSize=14;" edge="1" parent="1" source="CBmJ4WK3LXKFCN-YQZ7O-25" target="CBmJ4WK3LXKFCN-YQZ7O-28">
          <mxGeometry relative="1" as="geometry" />
        </mxCell>
        <mxCell id="CBmJ4WK3LXKFCN-YQZ7O-25" value="&lt;b&gt;environment.py&lt;/b&gt;&lt;div&gt;environmental constants (gravity, density, pressure, etc)&lt;/div&gt;" style="whiteSpace=wrap;html=1;fillColor=light-dark(#E3C800,#9A8E25);strokeColor=#B09500;fontColor=#000000;" vertex="1" parent="1">
          <mxGeometry x="485" y="160" width="120" height="60" as="geometry" />
        </mxCell>
        <mxCell id="CBmJ4WK3LXKFCN-YQZ7O-34" style="edgeStyle=orthogonalEdgeStyle;rounded=0;orthogonalLoop=1;jettySize=auto;html=1;exitX=0.5;exitY=1;exitDx=0;exitDy=0;entryX=0.5;entryY=0;entryDx=0;entryDy=0;fillColor=#a20025;strokeColor=#6F0000;" edge="1" parent="1" source="CBmJ4WK3LXKFCN-YQZ7O-26" target="CBmJ4WK3LXKFCN-YQZ7O-27">
          <mxGeometry relative="1" as="geometry" />
        </mxCell>
        <mxCell id="CBmJ4WK3LXKFCN-YQZ7O-35" value="used in" style="edgeLabel;html=1;align=center;verticalAlign=middle;resizable=0;points=[];fontSize=14;" vertex="1" connectable="0" parent="CBmJ4WK3LXKFCN-YQZ7O-34">
          <mxGeometry x="-0.0667" y="-1" relative="1" as="geometry">
            <mxPoint as="offset" />
          </mxGeometry>
        </mxCell>
        <mxCell id="CBmJ4WK3LXKFCN-YQZ7O-41" style="edgeStyle=orthogonalEdgeStyle;rounded=0;orthogonalLoop=1;jettySize=auto;html=1;exitX=1;exitY=1;exitDx=0;exitDy=0;entryX=0;entryY=0;entryDx=0;entryDy=0;fillColor=#1ba1e2;strokeColor=#006EAF;" edge="1" parent="1" source="CBmJ4WK3LXKFCN-YQZ7O-26" target="CBmJ4WK3LXKFCN-YQZ7O-28">
          <mxGeometry relative="1" as="geometry" />
        </mxCell>
        <mxCell id="CBmJ4WK3LXKFCN-YQZ7O-42" value="used in" style="edgeLabel;html=1;align=center;verticalAlign=middle;resizable=0;points=[];fontSize=14;" vertex="1" connectable="0" parent="CBmJ4WK3LXKFCN-YQZ7O-41">
          <mxGeometry x="0.3714" y="-1" relative="1" as="geometry">
            <mxPoint as="offset" />
          </mxGeometry>
        </mxCell>
        <mxCell id="CBmJ4WK3LXKFCN-YQZ7O-26" value="&lt;b&gt;vehicle.py&lt;/b&gt;&lt;div&gt;vehicle constants (speed, position, mass, etc)&lt;/div&gt;" style="whiteSpace=wrap;html=1;fillColor=#e51400;fontColor=#ffffff;strokeColor=#B20000;" vertex="1" parent="1">
          <mxGeometry x="245" y="160" width="120" height="60" as="geometry" />
        </mxCell>
        <mxCell id="CBmJ4WK3LXKFCN-YQZ7O-31" style="edgeStyle=orthogonalEdgeStyle;rounded=0;orthogonalLoop=1;jettySize=auto;html=1;fillColor=#fa6800;strokeColor=#C73500;" edge="1" parent="1" source="CBmJ4WK3LXKFCN-YQZ7O-27">
          <mxGeometry relative="1" as="geometry">
            <mxPoint x="365" y="410" as="targetPoint" />
          </mxGeometry>
        </mxCell>
        <mxCell id="CBmJ4WK3LXKFCN-YQZ7O-33" value="used in" style="edgeLabel;html=1;align=center;verticalAlign=middle;resizable=0;points=[];fontSize=14;" vertex="1" connectable="0" parent="CBmJ4WK3LXKFCN-YQZ7O-31">
          <mxGeometry x="-0.2267" relative="1" as="geometry">
            <mxPoint as="offset" />
          </mxGeometry>
        </mxCell>
        <mxCell id="CBmJ4WK3LXKFCN-YQZ7O-27" value="&lt;b&gt;dynamics.py&lt;/b&gt;&lt;div&gt;calculates odes; finds accelerations and trajectories&lt;/div&gt;" style="whiteSpace=wrap;html=1;fillColor=#a20025;fontColor=#ffffff;strokeColor=#6F0000;" vertex="1" parent="1">
          <mxGeometry x="245" y="280" width="120" height="60" as="geometry" />
        </mxCell>
        <mxCell id="CBmJ4WK3LXKFCN-YQZ7O-38" style="edgeStyle=orthogonalEdgeStyle;rounded=0;orthogonalLoop=1;jettySize=auto;html=1;fillColor=#fa6800;strokeColor=#C73500;" edge="1" parent="1" source="CBmJ4WK3LXKFCN-YQZ7O-28">
          <mxGeometry relative="1" as="geometry">
            <mxPoint x="485" y="410" as="targetPoint" />
            <Array as="points">
              <mxPoint x="545" y="385" />
              <mxPoint x="486" y="385" />
            </Array>
          </mxGeometry>
        </mxCell>
        <mxCell id="CBmJ4WK3LXKFCN-YQZ7O-39" value="used in" style="edgeLabel;html=1;align=center;verticalAlign=middle;resizable=0;points=[];fontSize=14;" vertex="1" connectable="0" parent="CBmJ4WK3LXKFCN-YQZ7O-38">
          <mxGeometry x="-0.3379" y="1" relative="1" as="geometry">
            <mxPoint as="offset" />
          </mxGeometry>
        </mxCell>
        <mxCell id="CBmJ4WK3LXKFCN-YQZ7O-28" value="&lt;b&gt;guidance.py&lt;/b&gt;&lt;div&gt;enables calculation of interception missile&lt;/div&gt;" style="whiteSpace=wrap;html=1;fillColor=#1ba1e2;fontColor=#ffffff;strokeColor=#006EAF;" vertex="1" parent="1">
          <mxGeometry x="485" y="280" width="120" height="60" as="geometry" />
        </mxCell>
        <mxCell id="CBmJ4WK3LXKFCN-YQZ7O-46" style="edgeStyle=orthogonalEdgeStyle;rounded=0;orthogonalLoop=1;jettySize=auto;html=1;entryX=0.5;entryY=0;entryDx=0;entryDy=0;fillColor=#d80073;strokeColor=#A50040;" edge="1" parent="1" target="CBmJ4WK3LXKFCN-YQZ7O-30">
          <mxGeometry relative="1" as="geometry">
            <mxPoint x="425" y="460" as="sourcePoint" />
          </mxGeometry>
        </mxCell>
        <mxCell id="CBmJ4WK3LXKFCN-YQZ7O-30" value="&lt;b&gt;visualization.py&lt;/b&gt;&lt;div&gt;uses matplotlib or vpython for visualization&lt;/div&gt;" style="whiteSpace=wrap;html=1;fillColor=light-dark(#6A00FF,#8F2DA7);fontColor=#ffffff;strokeColor=#3700CC;" vertex="1" parent="1">
          <mxGeometry x="365" y="520" width="120" height="60" as="geometry" />
        </mxCell>
        <mxCell id="CBmJ4WK3LXKFCN-YQZ7O-48" value="" style="endArrow=none;html=1;rounded=0;strokeWidth=5;curved=0;" edge="1" parent="1">
          <mxGeometry width="50" height="50" relative="1" as="geometry">
            <mxPoint x="80" y="680" as="sourcePoint" />
            <mxPoint x="80" y="20" as="targetPoint" />
          </mxGeometry>
        </mxCell>
        <mxCell id="CBmJ4WK3LXKFCN-YQZ7O-49" value="" style="endArrow=none;html=1;rounded=0;strokeWidth=5;curved=0;" edge="1" parent="1">
          <mxGeometry width="50" height="50" relative="1" as="geometry">
            <mxPoint x="80" y="680" as="sourcePoint" />
            <mxPoint x="760" y="680" as="targetPoint" />
          </mxGeometry>
        </mxCell>
        <mxCell id="CBmJ4WK3LXKFCN-YQZ7O-50" value="" style="endArrow=none;html=1;rounded=0;strokeWidth=5;curved=0;" edge="1" parent="1">
          <mxGeometry width="50" height="50" relative="1" as="geometry">
            <mxPoint x="760" y="20" as="sourcePoint" />
            <mxPoint x="760" y="680" as="targetPoint" />
          </mxGeometry>
        </mxCell>
        <mxCell id="CBmJ4WK3LXKFCN-YQZ7O-51" value="" style="endArrow=none;html=1;rounded=0;strokeWidth=5;curved=0;" edge="1" parent="1">
          <mxGeometry width="50" height="50" relative="1" as="geometry">
            <mxPoint x="80" y="20" as="sourcePoint" />
            <mxPoint x="760" y="20" as="targetPoint" />
          </mxGeometry>
        </mxCell>
      </root>
    </mxGraphModel>
  </diagram>
</mxfile>
